<svg width="51" height="50" viewBox="0 0 51 50" fill="none" xmlns="http://www.w3.org/2000/svg">
  <path fill-rule="evenodd" clip-rule="evenodd" d="M46.5 25C46.5 36.598 37.098 46 25.5 46C13.902 46 4.5 36.598 4.5 25C4.5 13.402 13.902 4 25.5 4C37.098 4 46.5 13.402 46.5 25ZM50.5 25C50.5 38.8071 39.3071 50 25.5 50C11.6929 50 0.5 38.8071 0.5 25C0.5 11.1929 11.6929 0 25.5 0C39.3071 0 50.5 11.1929 50.5 25ZM17.0753 20.1104L21.9649 24.9999L17.0753 29.8897C16.4895 30.4755 16.4895 31.4252 17.0753 32.011L18.4895 33.4252C19.0753 34.011 20.0251 34.011 20.6108 33.4252L25.5004 28.5355L30.3901 33.4252C30.9759 34.011 31.9257 34.011 32.5115 33.4252L33.9257 32.011C34.5115 31.4252 34.5115 30.4754 33.9257 29.8897L29.0359 24.9999L33.9254 20.1103C34.5112 19.5246 34.5112 18.5748 33.9254 17.989L32.5112 16.5748C31.9254 15.989 30.9756 15.9891 30.3898 16.5749L25.5004 21.4644L20.6108 16.5748C20.0251 15.989 19.0753 15.989 18.4895 16.5748L17.0753 17.989C16.4895 18.5748 16.4895 19.5246 17.0753 20.1104Z" fill="#F35252"/>
  </svg>
