<svg width="51" height="50" viewBox="0 0 51 50" fill="none" xmlns="http://www.w3.org/2000/svg">
  <path fill-rule="evenodd" clip-rule="evenodd" d="M25.5 46C37.098 46 46.5 36.598 46.5 25C46.5 13.402 37.098 4 25.5 4C13.902 4 4.5 13.402 4.5 25C4.5 36.598 13.902 46 25.5 46ZM25.5 50C39.3071 50 50.5 38.8071 50.5 25C50.5 11.1929 39.3071 0 25.5 0C11.6929 0 0.5 11.1929 0.5 25C0.5 38.8071 11.6929 50 25.5 50Z" fill="#72D1A4"/>
  <path fill-rule="evenodd" clip-rule="evenodd" d="M37.0821 17.6781C37.6679 18.2639 37.6678 19.2136 37.082 19.7994L23.1459 33.7346C22.5601 34.3204 21.6104 34.3204 21.0246 33.7346L13.9181 26.6276C13.3323 26.0418 13.3323 25.0921 13.9181 24.5063L15.3324 23.0921C15.9182 22.5063 16.8679 22.5064 17.4537 23.0922L22.0855 27.7242L33.5466 16.2638C34.1324 15.678 35.0821 15.678 35.6679 16.2638L37.0821 17.6781Z" fill="#72D1A4"/>
  </svg>
